<svg width="46" height="46" fill="none" xmlns="http://www.w3.org/2000/svg"><path d="M22.795 39.535c-4.614 0-5.158-.025-6.96-.104a12.353 12.353 0 0 1-4.098-.844 8.665 8.665 0 0 1-4.933-4.935 12.364 12.364 0 0 1-.786-4.103c-.105-1.797-.105-2.386-.105-6.965 0-4.627.024-5.168.105-6.959.028-1.4.293-2.786.786-4.097a8.648 8.648 0 0 1 4.939-4.937 12.255 12.255 0 0 1 4.096-.788c1.792-.101 2.381-.101 6.956-.101 4.652 0 5.187.024 6.96.101 1.404.027 2.793.293 4.108.788a8.657 8.657 0 0 1 4.939 4.937c.5 1.33.768 2.738.79 4.159.105 1.797.105 2.384.105 6.961s-.027 5.178-.106 6.954a12.38 12.38 0 0 1-.787 4.106 8.673 8.673 0 0 1-4.941 4.937c-1.313.492-2.7.758-4.101.786-1.791.104-2.378.104-6.967.104ZM22.731 8.67c-4.588 0-5.064.023-6.856.104a9.359 9.359 0 0 0-3.13.583 5.607 5.607 0 0 0-3.225 3.211 9.407 9.407 0 0 0-.584 3.165c-.099 1.818-.099 2.294-.099 6.85 0 4.503.017 5.048.1 6.855a9.505 9.505 0 0 0 .583 3.132 5.61 5.61 0 0 0 3.224 3.21 9.23 9.23 0 0 0 3.131.583c1.816.105 2.294.105 6.856.105 4.602 0 5.078-.022 6.855-.105a9.312 9.312 0 0 0 3.132-.583 5.627 5.627 0 0 0 3.208-3.206 9.454 9.454 0 0 0 .583-3.166h.021c.08-1.793.08-2.272.08-6.854 0-4.583-.02-5.065-.1-6.857a9.482 9.482 0 0 0-.584-3.129 5.627 5.627 0 0 0-3.208-3.211 9.273 9.273 0 0 0-3.132-.583c-1.814-.104-2.289-.104-6.855-.104Zm.064 22.578a8.672 8.672 0 1 1 8.666-8.674 8.683 8.683 0 0 1-8.666 8.674Zm0-14.305a5.628 5.628 0 1 0 5.628 5.627 5.64 5.64 0 0 0-5.628-5.627Zm9.004-1.338a2.022 2.022 0 1 1 .015-4.044 2.022 2.022 0 0 1-.015 4.044Z" fill="#2E3A59"/></svg>