<svg width="46" height="46" fill="none" xmlns="http://www.w3.org/2000/svg"><path d="M36.983 39.444H9.363a3.061 3.061 0 0 1-3.057-3.06V8.765a3.061 3.061 0 0 1 3.057-3.057h27.618a3.065 3.065 0 0 1 3.062 3.058v27.62a3.063 3.063 0 0 1-3.06 3.06Zm-23.802-21.24-.728 2.683h2.397L13.3 27.2a7.641 7.641 0 0 0-.187 1.521 2.708 2.708 0 0 0 3.04 2.971 4.817 4.817 0 0 0 4.096-2.648l-.614 2.438h3.397l1.938-7.768c.488-1.988 1.448-3.001 2.85-3.001a1.701 1.701 0 0 1 1.821 1.846c.005.37-.049.737-.16 1.09l-.99 3.575a5.458 5.458 0 0 0-.214 1.523 2.776 2.776 0 0 0 3.097 2.938c1.933 0 3.28-1.313 4.01-3.904l-1.327-.512c-.518 1.48-1.07 2.2-1.688 2.2-.453 0-.69-.313-.69-.907a4.23 4.23 0 0 1 .14-.923l.975-3.486a7.603 7.603 0 0 0 .338-2.213 3.565 3.565 0 0 0-3.48-3.96 5.873 5.873 0 0 0-4.513 3.305l.675-3.033h-5.23l-.733 2.626h2.427l-1.5 5.98a3.92 3.92 0 0 1-3.425 2.594.95.95 0 0 1-.173-.013c-.456-.107-.72-.281-.72-.848a5.6 5.6 0 0 1 .206-1.384l2.281-9.004h-5.766Zm4.399-5.931a2.045 2.045 0 0 0 0 4.09v-.048a2.075 2.075 0 0 0 1.465-.589 2 2 0 0 0 .594-1.437 2.043 2.043 0 0 0-2.06-2.016Z" fill="#2E3A59"/></svg>