<svg width="144" height="52" fill="none" xmlns="http://www.w3.org/2000/svg"><path d="M71.058 31.727h-1.621v4.844h-1.182V26.004h1.182v4.688h1.602l3.876-4.688h1.475l-4.336 5.127 4.815 5.44h-1.543l-4.268-4.844Zm15.625-5.723v10.567h-1.172v-9.56h-4.326L81 30.964c-.078 1.465-.224 2.585-.439 3.36-.215.768-.534 1.334-.957 1.699-.423.364-.986.547-1.69.547h-.449v-1.035l.362-.02c.67-.013 1.152-.338 1.445-.976.293-.639.485-1.778.576-3.418l.215-5.118h6.621Zm10.088 0h1.172v10.567H96.77v-8.682l-5.703 8.682h-1.162V26.004h1.162v8.692l5.703-8.692Zm12.422 10.567h-1.172v-4.844h-5.693v4.844h-1.172V26.004h1.172v4.737h5.693v-4.737h1.172v10.567Zm10.078-10.567h1.172v10.567h-1.172v-8.682l-5.703 8.682h-1.162V26.004h1.162v8.692l5.703-8.692Zm7.178 5.723h-1.621v4.844h-1.182V26.004h1.182v4.688h1.601l3.877-4.688h1.475l-4.336 5.127 4.814 5.44h-1.543l-4.267-4.844Zm14.17 4.844c-.118-.332-.192-.824-.225-1.475-.41.534-.934.948-1.572 1.24a4.814 4.814 0 0 1-2.012.43c-1.016 0-1.839-.283-2.471-.85-.625-.566-.937-1.282-.937-2.148 0-1.029.426-1.842 1.279-2.441.86-.6 2.054-.899 3.584-.899h2.119v-1.2c0-.756-.234-1.349-.703-1.778-.462-.436-1.139-.655-2.031-.655-.814 0-1.488.209-2.022.625-.533.417-.8.918-.8 1.504l-1.172-.01c0-.84.39-1.565 1.172-2.177.781-.619 1.741-.928 2.88-.928 1.179 0 2.107.296 2.784.889.683.586 1.035 1.406 1.054 2.46v5c0 1.023.108 1.788.323 2.296v.117h-1.25Zm-3.672-.84c.781 0 1.478-.189 2.09-.566a3.328 3.328 0 0 0 1.347-1.514v-2.324h-2.09c-1.165.013-2.076.227-2.734.644-.657.41-.986.977-.986 1.7 0 .592.218 1.083.654 1.474.443.39 1.016.586 1.719.586Zm-102.052.789a.663.663 0 0 1-.44-.151.453.453 0 0 1-.179-.364V16.342L24.738 36.17a.605.605 0 0 1-.585.324h-.163a.605.605 0 0 1-.586-.324l-9.472-19.315v19.152a.491.491 0 0 1-.18.378.673.673 0 0 1-.878 0 .493.493 0 0 1-.18-.378V14.184a.368.368 0 0 1 .034-.135.554.554 0 0 1 .585-.405.604.604 0 0 1 .586.325l10.155 20.77 9.994-20.745c.13-.268.338-.347.68-.347h.167a.694.694 0 0 1 .453.162.48.48 0 0 1 .196.379v21.306h1.693v-21.31a.496.496 0 0 1 .178-.378l.18-.162h.26a.64.64 0 0 1 .44.162.5.5 0 0 1 .178.379v21.821a.453.453 0 0 1-.178.364.55.55 0 0 1-.1.068.81.81 0 0 1-.34.082 2.07 2.07 0 0 1-.325 0h-2.635Z" fill="#1A3444"/><path d="M44.757 13.557c.16-.004.316.05.44.15a.453.453 0 0 1 .178.364.496.496 0 0 1-.179.38.634.634 0 0 1-.439.161h-6.282v20.987a.485.485 0 0 1-.18.39.726.726 0 0 1-.879 0 .485.485 0 0 1-.18-.39V14.123a.475.475 0 0 1 .262-.405.696.696 0 0 1 .453-.161h6.806ZM40.01 36.57a.736.736 0 0 1-.453-.15.443.443 0 0 1-.195-.365v-11.6a.478.478 0 0 1 .195-.378.688.688 0 0 1 .453-.161.627.627 0 0 1 .571.33.497.497 0 0 1 .048.209v11.038h4.134a.626.626 0 0 1 .57.33.508.508 0 0 1 .048.21.453.453 0 0 1-.178.363.67.67 0 0 1-.44.151l-4.753.024Zm6.477-22.96a10.312 10.312 0 0 1 5.452 1.51c1.651 1 3.013 2.414 3.95 4.102a11.278 11.278 0 0 1 1.465 5.651c0 2.042-.488 4.275-1.465 6a11.1 11.1 0 0 1-3.951 4.1 10.312 10.312 0 0 1-5.452 1.51.669.669 0 0 1-.44-.151.49.49 0 0 1 0-.755.669.669 0 0 1 .44-.151 9.019 9.019 0 0 0 4.818-1.36 9.771 9.771 0 0 0 3.503-3.72c.856-1.573 1.285-3.63 1.285-5.474a10.57 10.57 0 0 0-1.285-5.126 9.771 9.771 0 0 0-3.5-3.722 9.018 9.018 0 0 0-4.818-1.359.628.628 0 0 1-.44-.166.49.49 0 0 1-.132-.58.453.453 0 0 1 .133-.161.67.67 0 0 1 .431-.148h.006Z" fill="#1A3444"/><path fill-rule="evenodd" clip-rule="evenodd" d="M41.786 7.122c.188-.09.367-.199.532-.326 0 0-.194.126-.532.326Zm-14.71-1.7C15.678.753 8.397-2.451 3.595 3.912c-3.99 5.284-4.631 13.596-2.06 24.443 2.31 9.75 7.134 16.345 10.845 19.91 3.624 3.472 8.39 4.68 11.534 2.471 1.534-1.08 2.438-2.076 3.846-4.668a20.694 20.694 0 0 0 1.784-4.668s-4.806 10.023-10.298 7.827C13.753 47.03 7.534 39.949 4.967 26.568 3.17 17.206 4.282 5.422 9.637 4.05c5.355-1.372 12.495 2.34 17.439 3.707 4.943 1.366 8.926 1.786 11.26.962a20.692 20.692 0 0 0 3.45-1.596c-1.394.699-5.681 1.999-14.71-1.7Z" fill="#38BCEA"/><path fill-rule="evenodd" clip-rule="evenodd" d="M49.321 3.37c-3.422-2.336-6.5-2.238-8.651-2.067-4.028.318-7.277 2.196-7.277 2.196s6.995-2.026 12.078.413c4.494 2.15 4.806 5.905 4.806 5.905s.995.217 2.505 1.132c1.439.876 1.779 1.329 1.779 1.329s-1.113-6.117-5.24-8.909Z" fill="#38BCEA"/></svg>