<svg width="45" height="46" fill="none" xmlns="http://www.w3.org/2000/svg"><g fill="#20A0CD"><path d="M22.698 27.5c-7.456 0-13.522 6.067-13.522 13.523 0 .364.294.658.657.658h25.73a.657.657 0 0 0 .658-.658c0-7.456-6.066-13.523-13.523-13.523Zm-12.19 12.865c.343-6.426 5.68-11.55 12.19-11.55s11.847 5.124 12.19 11.55h-24.38Zm11.967-14.067c4.313 0 7.823-3.51 7.823-7.825 0-1.525-.44-2.995-1.267-4.264v-9.7a.657.657 0 0 0-.658-.658H16.578a.657.657 0 0 0-.657.657v9.696a7.789 7.789 0 0 0-1.27 4.269c0 4.315 3.51 7.825 7.824 7.825Zm-5.24-21.132h10.48v8.745h-10.48V5.166Zm-.399 10.06h11.28a6.516 6.516 0 0 1-5.641 9.757 6.517 6.517 0 0 1-6.508-6.51c0-1.148.3-2.261.87-3.247Z"/><path d="M24.767 8.954h-1.634V7.317a.657.657 0 1 0-1.315 0v1.637h-1.635a.657.657 0 1 0 0 1.315h1.635v1.634a.657.657 0 1 0 1.315 0V10.27h1.634a.657.657 0 1 0 0-1.315Z"/></g></svg>